<svg fill="none" height="1145" viewBox="0 0 1145 1145" width="1145" xmlns="http://www.w3.org/2000/svg"><path d="m0 0h1145v1145h-1145z" fill="#ff4307"/><path d="m764.723 868.276v3.331c0 6.224-4.97 11.26-11.152 11.26h-80.047c-6.155 0-11.152-5.036-11.152-11.26v-3.331c0-6.224 4.971-11.26 11.152-11.26h3.297c6.156 0 11.152-5.036 11.152-11.259v-3.332c0-6.224 4.971-11.26 11.152-11.26h3.297c6.155 0 11.152-5.036 11.152-11.26v-3.331c0-6.224 4.97-11.26 11.152-11.26h3.296c6.156 0 11.152-5.036 11.152-11.26v-3.331c0-6.224 4.971-11.26 11.152-11.26h3.297c6.155 0 11.152-5.036 11.152-11.26v-29.182c0-6.224 4.971-11.26 11.152-11.26h3.296c6.156 0 11.152-5.036 11.152-11.26v-29.182c0-6.224 4.971-11.26 11.152-11.26h3.297c6.155 0 11.152-5.036 11.152-11.26v-184.262c0-6.224-4.971-11.26-11.152-11.26h-3.297c-6.155 0-11.152-5.036-11.152-11.26v-29.182c0-6.224-4.97-11.26-11.152-11.26h-3.296c-6.156 0-11.152-5.036-11.152-11.26v-29.182c0-6.224-4.971-11.26-11.152-11.26h-3.297c-6.155 0-11.152-5.036-11.152-11.26v-3.332c0-6.223-4.971-11.259-11.152-11.259h-3.296c-6.156 0-11.152-5.036-11.152-11.26v-3.332c0-6.223-4.971-11.259-11.152-11.259h-3.297c-6.155 0-11.152-5.036-11.152-11.26v-3.332c0-6.223-4.971-11.259-11.152-11.259h-3.297c-6.155 0-11.152-5.036-11.152-11.26v-3.332c0-6.223 4.971-11.259 11.152-11.259h80.047c6.156 0 11.152 5.036 11.152 11.259v3.332c0 6.224 4.971 11.26 11.152 11.26h3.297c6.155 0 11.152 5.036 11.152 11.259v3.332c0 6.224 4.971 11.26 11.152 11.26h3.296c6.156 0 11.152 5.036 11.152 11.259v3.332c0 6.224 4.971 11.26 11.152 11.26h3.297c6.156 0 11.152 5.036 11.152 11.259v29.183c0 6.224 4.971 11.26 11.152 11.26h3.297c6.155 0 11.151 5.036 11.151 11.26v55.033c0 6.224 4.971 11.26 11.152 11.26h3.297c6.156 0 11.152 5.036 11.152 11.26v184.262c0 6.224-4.971 11.26-11.152 11.26h-3.297c-6.155 0-11.152 5.036-11.152 11.26v55.033c0 6.224-4.97 11.26-11.151 11.26h-3.297c-6.156 0-11.152 5.036-11.152 11.26v29.182c0 6.224-4.971 11.26-11.152 11.26h-3.297c-6.155 0-11.152 5.036-11.152 11.26v3.331c0 6.224-4.97 11.26-11.152 11.26h-3.296c-6.156 0-11.152 5.036-11.152 11.26v3.332c0 6.223-4.971 11.259-11.152 11.259h-3.297c-6.155 0-11.152 5.036-11.152 11.26zm-204.727 3.383v-3.331c0-6.224-4.971-11.26-11.152-11.26h-3.297c-6.155 0-11.152-5.036-11.152-11.26v-3.331c0-6.224-4.97-11.26-11.152-11.26h-3.296c-6.156 0-11.152-5.036-11.152-11.26v-3.331c0-6.224-4.971-11.26-11.152-11.26h-3.297c-6.155 0-11.152-5.036-11.152-11.26v-29.182c0-6.224-4.971-11.26-11.152-11.26h-3.296c-6.156 0-11.152-5.036-11.152-11.26v-55.033c0-6.224-4.971-11.26-11.152-11.26h-3.297c-6.155 0-11.152-5.036-11.152-11.26v-184.263c0-6.224 4.971-11.26 11.152-11.26h3.297c6.155 0 11.152-5.035 11.152-11.259v-55.034c0-6.224 4.97-11.26 11.152-11.26h3.296c6.156 0 11.152-5.036 11.152-11.259v-29.183c0-6.224 4.971-11.26 11.152-11.26h3.297c6.155 0 11.152-5.036 11.152-11.259v-3.332c0-6.224 4.971-11.26 11.152-11.26h3.296c6.156 0 11.152-5.036 11.152-11.259v-3.332c0-6.224 4.971-11.26 11.152-11.26h3.297c6.155 0 11.152-5.036 11.152-11.259v-3.332c0-6.224 4.971-11.26 11.152-11.26h3.297c6.155 0 11.152 5.036 11.152 11.26v3.332c0 6.223 4.97 11.259 11.151 11.259h3.297c6.156 0 11.152 5.036 11.152 11.26v3.332c0 6.223 4.971 11.259 11.152 11.259h3.297c6.155 0 11.152 5.036 11.152 11.26v3.332c0 6.223 4.97 11.259 11.152 11.259h3.296c6.156 0 11.152 5.036 11.152 11.26v29.183c0 6.223 4.971 11.259 11.152 11.259h3.297c6.155 0 11.152 5.036 11.152 11.26v55.034c0 6.224 4.971 11.259 11.152 11.259h3.296c6.156 0 11.152 5.036 11.152 11.26v184.263c0 6.224-4.97 11.26-11.152 11.26h-3.296c-6.156 0-11.152 5.036-11.152 11.26v55.033c0 6.224-4.971 11.26-11.152 11.26h-3.297c-6.155 0-11.152 5.036-11.152 11.26v29.182c0 6.224-4.971 11.26-11.152 11.26h-3.296c-6.156 0-11.152 5.036-11.152 11.26v3.331c0 6.224-4.971 11.26-11.152 11.26h-3.297c-6.155 0-11.152 5.036-11.152 11.26v3.331c0 6.224-4.971 11.26-11.152 11.26h-3.297c-6.155 0-11.151 5.036-11.151 11.26v3.331c0 6.224-4.971 11.26-11.152 11.26h-3.297c-6.156 0-11.152-5.036-11.152-11.26zm-153.552 11.26h-14.449c-6.155 0-11.152-5.036-11.152-11.26v-3.331c0-6.224-4.97-11.26-11.152-11.26h-3.296c-6.156 0-11.152-5.036-11.152-11.26v-3.331c0-6.224-4.971-11.26-11.152-11.26h-3.297c-6.155 0-11.152-5.036-11.152-11.26v-3.331c0-6.224-4.97-11.26-11.152-11.26h-3.296c-6.156 0-11.152-5.036-11.152-11.26v-29.182c0-6.224-4.971-11.26-11.152-11.26h-3.297c-6.155 0-11.152-5.036-11.152-11.26v-55.033c0-6.224-4.971-11.26-11.152-11.26h-3.297c-6.155 0-11.151-5.036-11.151-11.26v-184.263c0-6.224 4.97-11.26 11.151-11.26h3.297c6.156 0 11.152-5.035 11.152-11.259v-55.034c0-6.224 4.971-11.26 11.152-11.26h3.297c6.155 0 11.152-5.036 11.152-11.259v-29.183c0-6.224 4.97-11.26 11.152-11.26h3.296c6.156 0 11.152-5.036 11.152-11.259v-3.332c0-6.224 4.971-11.26 11.152-11.26h3.297c6.155 0 11.152-5.036 11.152-11.259v-3.332c0-6.224 4.971-11.26 11.152-11.26h3.296c6.156 0 11.152-5.036 11.152-11.259v-3.332c0-6.224 4.971-11.26 11.152-11.26h80.047c6.156 0 11.152 5.036 11.152 11.26v3.332c0 6.223-4.971 11.259-11.152 11.259h-3.296c-6.156 0-11.152 5.036-11.152 11.26v3.332c0 6.223-4.971 11.259-11.152 11.259h-3.297c-6.155 0-11.152 5.036-11.152 11.26v3.332c0 6.223-4.971 11.259-11.152 11.259h-3.297c-6.155 0-11.152 5.036-11.152 11.26v3.332c0 6.223-4.97 11.259-11.151 11.259h-3.297c-6.156 0-11.152 5.036-11.152 11.26v29.183c0 6.223-4.971 11.259-11.152 11.259h-3.297c-6.155 0-11.152 5.036-11.152 11.26v29.183c0 6.224-4.97 11.259-11.152 11.259h-3.296c-6.156 0-11.152 5.036-11.152 11.26v184.263c0 6.224 4.97 11.26 11.152 11.26h3.296c6.156 0 11.152 5.036 11.152 11.26v29.182c0 6.224 4.971 11.26 11.152 11.26h3.297c6.155 0 11.152 5.036 11.152 11.26v29.182c0 6.224 4.971 11.26 11.152 11.26h3.297c6.155 0 11.151 5.036 11.151 11.26v3.331c0 6.224 4.971 11.26 11.152 11.26h3.297c6.156 0 11.152 5.036 11.152 11.26v3.331c0 6.224 4.971 11.26 11.152 11.26h3.297c6.155 0 11.152 5.036 11.152 11.26v3.331c0 6.224 4.97 11.26 11.152 11.26h3.296c6.156 0 11.152 5.036 11.152 11.26v3.331c0 6.224-4.971 11.26-11.152 11.26zm574.184-413.745c-6.155 0-11.152-5.036-11.152-11.26v-29.183c0-6.224-4.97-11.26-11.152-11.26h-3.296c-6.156 0-11.152-5.035-11.152-11.259v-29.183c0-6.224-4.971-11.26-11.152-11.26h-3.297c-6.155 0-11.152-5.035-11.152-11.259v-3.332c0-6.224-4.971-11.26-11.152-11.26h-3.296c-6.156 0-11.152-5.036-11.152-11.259v-3.332c0-6.224-4.971-11.26-11.152-11.26h-3.297c-6.156 0-11.152-5.036-11.152-11.259v-3.332c0-6.224-4.971-11.26-11.152-11.26h-3.297c-6.155 0-11.152-5.036-11.152-11.259v-3.332c0-6.224-4.97-11.26-11.152-11.26h-28.871c-6.155 0-11.152-5.036-11.152-11.259v-3.332c0-6.224-4.971-11.26-11.152-11.26h-54.472c-6.155 0-11.152-5.036-11.152-11.259v-3.332c-.077-6.353-5.099-11.389-11.255-11.389h-80.047c-6.155 0-11.152 5.036-11.152 11.26v3.331c0 6.224-4.97 11.26-11.152 11.26h-54.472c-6.155 0-11.152-5.036-11.152-11.26v-3.331c-.051-6.224-5.022-11.26-11.177-11.26h-80.047c-6.156 0-11.152 5.036-11.152 11.26v3.331c0 6.224-4.971 11.26-11.152 11.26h-54.472c-6.156 0-11.152 5.036-11.152 11.26v3.331c0 6.224-4.971 11.26-11.152 11.26h-28.872c-6.155 0-11.152 5.036-11.152 11.26v3.331c0 6.224-4.97 11.26-11.152 11.26h-3.296c-6.156 0-11.152 5.036-11.152 11.26v3.331c0 6.224-4.971 11.26-11.152 11.26h-3.297c-6.155 0-11.152 5.036-11.152 11.26v3.331c0 6.224-4.97 11.26-11.152 11.26h-3.296c-6.156 0-11.152 5.036-11.152 11.26v3.332c0 6.223-4.971 11.259-11.152 11.259h-3.297c-6.155 0-11.152 5.036-11.152 11.26v29.183c0 6.223-4.971 11.259-11.152 11.259h-3.297c-6.155 0-11.151 5.036-11.151 11.26v29.183c0 6.223-4.971 11.259-11.152 11.259h-3.297c-6.31.129-11.307 5.165-11.307 11.389v184.263c0 6.224 4.971 11.26 11.152 11.26h3.297c6.156 0 11.152 5.036 11.152 11.26v29.182c0 6.224 4.971 11.26 11.152 11.26h3.297c6.155 0 11.152 5.036 11.152 11.26v29.182c0 6.224 4.97 11.26 11.152 11.26h3.296c6.156 0 11.152 5.036 11.152 11.26v3.331c0 6.224 4.971 11.26 11.152 11.26h3.297c6.155 0 11.152 5.036 11.152 11.26v3.331c0 6.224 4.97 11.26 11.152 11.26h3.296c6.156 0 11.152 5.036 11.152 11.26v3.331c0 6.224 4.971 11.26 11.152 11.26h3.297c6.155 0 11.152 5.036 11.152 11.26v3.331c0 6.224 4.971 11.26 11.152 11.26h28.871c6.156 0 11.152 5.036 11.152 11.26v3.331c0 6.224 4.971 11.26 11.152 11.26h54.472c6.156 0 11.152 5.036 11.152 11.26v3.331c0 6.224 4.971 11.26 11.152 11.26h80.047c6.156 0 11.152-5.036 11.152-11.26v-3.331c0-6.224 4.971-11.26 11.152-11.26h54.472c6.156 0 11.152 5.036 11.152 11.26v3.331c0 6.224 4.971 11.26 11.152 11.26h80.047c6.155 0 11.152-5.036 11.152-11.26v-3.331c0-6.224 4.971-11.26 11.152-11.26h54.472c6.155 0 11.152-5.036 11.152-11.26v-3.331c0-6.224 4.971-11.26 11.152-11.26h28.871c6.156 0 11.152-5.036 11.152-11.26v-3.331c0-6.224 4.971-11.26 11.152-11.26h3.297c6.155 0 11.152-5.036 11.152-11.26v-3.331c0-6.224 4.97-11.26 11.152-11.26h3.296c6.156 0 11.152-5.036 11.152-11.26v-3.331c0-6.224 4.971-11.26 11.152-11.26h3.297c6.155 0 11.152-5.036 11.152-11.26v-3.331c0-6.224 4.971-11.26 11.152-11.26h3.296c6.156 0 11.152-5.036 11.152-11.26v-29.182c0-6.224 4.971-11.26 11.152-11.26h3.297c6.156 0 11.152-5.036 11.152-11.26v-29.182c0-6.224 4.971-11.26 11.152-11.26h3.297c6.155 0 11.152-5.036 11.152-11.26v-184.263c0-6.224-4.971-11.259-11.152-11.259h-3.297.309z" fill="#000"/></svg>