<svg fill="none" height="268" viewBox="0 0 659 268" width="659" xmlns="http://www.w3.org/2000/svg" xmlns:xlink="http://www.w3.org/1999/xlink"><clipPath id="a"><path d="m0 0h659v268h-659z"/></clipPath><g clip-path="url(#a)" fill="#000"><path d="m428.267 148.139v-18.783c0-2.039 1.651-3.685 3.677-3.685h89.786c2.034 0 3.677-1.655 3.677-3.686v-7.61c0-2.039-1.65-3.686-3.677-3.686h-.115c-2.034 0-3.677-1.655-3.677-3.686v-3.801-3.8013c0-2.0391-1.65-3.6858-3.677-3.6858h-.115c-2.034 0-3.676-1.6544-3.676-3.6858v-7.6101c0-2.0391-1.651-3.6858-3.677-3.6858h-.115c-2.035 0-3.677-1.6543-3.677-3.6857v-.1155c0-2.0391-1.651-3.6857-3.677-3.6857h-7.592c-2.034 0-3.676-1.6544-3.676-3.6858v-.1154c0-2.0391-1.651-3.6858-3.677-3.6858h-3.792-7.477-26.213c-2.034 0-3.677 1.6543-3.677 3.6858v.1154c0 2.0391-1.65 3.6858-3.677 3.6858h-7.591c-2.034 0-3.677 1.6543-3.677 3.6857v.1155c0 2.0391-1.65 3.6857-3.677 3.6857h-.115c-2.034 0-3.677 1.6544-3.677 3.6858v3.8012 3.8012c0 2.0391-1.65 3.6858-3.677 3.6858h-.115c-2.034 0-3.677 1.6544-3.677 3.6858v3.801 3.801c0 2.039-1.65 3.686-3.676 3.686h-.116c-2.034 0-3.676 1.655-3.676 3.686v3.801 7.495 33.764c0 2.039 1.65 3.686 3.676 3.686h.116c2.034 0 3.676 1.654 3.676 3.686v3.801 3.801c0 2.039 1.651 3.686 3.677 3.686h.115c2.034 0 3.677 1.654 3.677 3.686v3.801 3.801c0 2.039 1.65 3.686 3.677 3.686h.115c2.034 0 3.677 1.654 3.677 3.686v.115c0 2.039 1.65 3.686 3.677 3.686h3.792 3.792c2.034 0 3.676 1.654 3.676 3.686v.115c0 2.039 1.651 3.686 3.677 3.686h3.792 7.477 26.213c2.034 0 3.677-1.654 3.677-3.686v-.115c0-2.039 1.65-3.686 3.677-3.686h.115c2.034 0 3.677-1.654 3.677-3.686v-.115c0-2.039 1.65-3.686 3.676-3.686h.116c2.034 0 3.676-1.654 3.676-3.686v-.115c0-2.039 1.651-3.686 3.677-3.686h.115c2.035 0 3.677-1.654 3.677-3.686v-.115c0-2.039 1.65-3.686 3.677-3.686h.115c2.034 0 3.677-1.654 3.677-3.686v-3.801-3.801c0-2.039-1.65-3.686-3.677-3.686h-.115c-2.034 0-3.677 1.654-3.677 3.686v.115c0 2.039-1.65 3.686-3.677 3.686h-.115c-2.034 0-3.677 1.654-3.677 3.686v.115c0 2.039-1.65 3.686-3.676 3.686h-.116c-2.034 0-3.676 1.654-3.676 3.686v.115c0 2.039-1.651 3.686-3.677 3.686h-3.792-7.469-33.682c-2.034 0-3.677-1.654-3.677-3.686v-.115c0-2.039-1.65-3.686-3.677-3.686h-.115c-2.034 0-3.677-1.654-3.677-3.686v-7.61c0-2.039-1.65-3.686-3.676-3.686h-.116c-2.034 0-3.676-1.654-3.676-3.685v-3.802-7.487zm22.414-71.0992v-.1155c0-2.0391 1.65-3.6857 3.677-3.6857h3.792 7.469 11.268c2.034 0 3.677 1.6543 3.677 3.6857v.1155c0 2.0391 1.65 3.6857 3.677 3.6857h.115c2.034 0 3.677 1.6544 3.677 3.6858v.1154c0 2.0391 1.65 3.6858 3.676 3.6858h.115c2.035 0 3.677 1.6544 3.677 3.6858v.1154c0 2.0391 1.651 3.6858 3.677 3.6858h.115c2.034 0 3.677 1.6544 3.677 3.6858v3.8007 7.495 3.801c0 2.039-1.65 3.686-3.677 3.686h-67.372c-2.034 0-3.677-1.654-3.677-3.686v-7.61c0-2.039 1.651-3.686 3.677-3.686h.115c2.034 0 3.677-1.654 3.677-3.6853v-7.6101c0-2.0391 1.65-3.6858 3.677-3.6858h.115c2.034 0 3.677-1.6543 3.677-3.6858v-.1154c0-2.0391 1.65-3.6858 3.677-3.6858h.115c2.034 0 3.676-1.6543 3.676-3.6857z"/><path d="m651.531 196.893v-.115c0-2.04-1.65-3.686-3.677-3.686h-.115c-2.034 0-3.677-1.655-3.677-3.686v-90.0053c0-2.0391-1.65-3.6858-3.676-3.6858h-.115c-2.035 0-3.677-1.6544-3.677-3.6858v-7.6101c0-2.0391-1.651-3.6858-3.677-3.6858h-.115c-2.034 0-3.677-1.6543-3.677-3.6857v-.1155c0-2.0391-1.65-3.6857-3.677-3.6857h-.115c-2.034 0-3.677-1.6544-3.677-3.6858v-.1154c0-2.0391-1.65-3.6858-3.677-3.6858h-22.506c-2.034 0-3.676 1.6543-3.676 3.6858v.1154c0 2.0391-1.651 3.6858-3.677 3.6858h-7.576c-2.035 0-3.677 1.6543-3.677 3.6857v.1155c0 2.0391-1.651 3.6857-3.677 3.6857h-.115c-2.034 0-3.677 1.6544-3.677 3.6858v.1154c0 2.0391-1.65 3.6858-3.677 3.6858h-.115c-2.034 0-3.677-1.6544-3.677-3.6858v-3.8012-7.4869-3.8012c0-2.0391-1.65-3.6858-3.677-3.6858h-7.591c-2.034 0-3.677 1.6543-3.677 3.6858v.1154c0 2.0391-1.65 3.6858-3.677 3.6858h-3.792-3.792c-2.034 0-3.676 1.6543-3.676 3.6857v.1155c0 2.0391-1.651 3.6857-3.677 3.6857h-.115c-2.034 0-3.677 1.6544-3.677 3.6858v.1154c0 2.0391 1.65 3.6858 3.677 3.6858h3.792 3.792c2.034 0 3.676 1.6544 3.676 3.6858v97.5c0 2.039-1.65 3.686-3.676 3.686h-.116c-2.034 0-3.676 1.654-3.676 3.686v.115c0 2.039-1.651 3.686-3.677 3.686h-.115c-2.034 0-3.677 1.654-3.677 3.686v.115c0 2.039 1.65 3.686 3.677 3.686h3.792 7.468 33.683c2.034 0 3.676-1.655 3.676-3.686v-.115c0-2.04-1.65-3.686-3.676-3.686h-.115c-2.035 0-3.677-1.655-3.677-3.686v-.115c0-2.04-1.651-3.686-3.677-3.686h-.115c-2.034 0-3.677-1.655-3.677-3.686v-3.801-7.495-78.7093c0-2.0391 1.65-3.6858 3.677-3.6858h7.591c2.034 0 3.677-1.6544 3.677-3.6858v-.1154c0-2.0391 1.65-3.6858 3.677-3.6858h.115c2.034 0 3.677-1.6544 3.677-3.6858v-.1154c0-2.0391 1.65-3.6858 3.677-3.6858h15.029c2.034 0 3.677 1.6544 3.677 3.6858v.1154c0 2.0391 1.65 3.6858 3.677 3.6858h.107c2.034 0 3.677 1.6544 3.677 3.6858v3.8012 3.8012c0 2.0389 1.651 3.6859 3.677 3.6859h.115c2.034 0 3.677 1.654 3.677 3.686v82.518c0 2.039-1.65 3.686-3.677 3.686h-.115c-2.034 0-3.677 1.654-3.677 3.686v.115c0 2.039-1.65 3.686-3.677 3.686h-.115c-2.034 0-3.677 1.654-3.677 3.686v.115c0 2.039 1.651 3.686 3.677 3.686h3.792 7.477 33.682c2.034 0 3.677-1.655 3.677-3.686v-.115c0-2.04-1.651-3.686-3.677-3.686h-.115c-2.034 0-3.677-1.655-3.677-3.686z"/><path d="m387.423 103.194v-3.801c0-2.0391-1.65-3.6858-3.677-3.6858h-.115c-2.034 0-3.677-1.6544-3.677-3.6858v-7.6101c0-2.0391-1.65-3.6858-3.676-3.6858h-.116c-2.034 0-3.676-1.6543-3.676-3.6857v-.1155c0-2.0391-1.651-3.6857-3.677-3.6857h-.115c-2.034 0-3.677-1.6544-3.677-3.6858v-.1154c0-2.0391-1.65-3.6858-3.677-3.6858h-30.005c-2.035 0-3.677 1.6544-3.677 3.6858v.1154c0 2.0391-1.651 3.6858-3.677 3.6858h-3.792-3.792c-2.034 0-3.677 1.6543-3.677 3.6857v.1155c0 2.0391-1.65 3.6857-3.677 3.6857h-7.591c-2.034 0-3.677-1.6543-3.677-3.6857v-7.6101c0-2.0391-1.65-3.6858-3.677-3.6858h-7.591c-2.034 0-3.677 1.6544-3.677 3.6858v.1154c0 2.0391-1.65 3.6858-3.677 3.6858h-3.792-3.792c-2.034 0-3.677 1.6543-3.677 3.6858v.1154c0 2.0391-1.65 3.6858-3.676 3.6858h-.116c-2.034 0-3.676 1.6543-3.676 3.6857v.1154c0 2.0392 1.65 3.6858 3.676 3.6858h3.792 3.792c2.035 0 3.677 1.6544 3.677 3.6858v157.4264c0 2.039-1.65 3.686-3.677 3.686h-.115c-2.034 0-3.677 1.654-3.677 3.686v.115c0 2.039-1.65 3.686-3.676 3.686h-7.592c-2.034 0-3.677 1.654-3.677 3.686v.115c0 2.039 1.651 3.686 3.677 3.686h3.792 7.476 48.628c2.034 0 3.677-1.654 3.677-3.686v-.115c0-2.039-1.651-3.686-3.677-3.686h-7.592c-2.034 0-3.676-1.654-3.676-3.686v-.115c0-2.039-1.651-3.686-3.677-3.686h-.115c-2.035 0-3.677-1.654-3.677-3.686v-3.801-7.495-41.259c0-2.039 1.65-3.686 3.677-3.686h.115c2.034 0 3.677 1.655 3.677 3.686v.116c0 2.039 1.65 3.685 3.676 3.685h.115c2.035 0 3.677 1.655 3.677 3.686v.116c0 2.039 1.651 3.685 3.677 3.685h3.792 7.469 18.737c2.034 0 3.677-1.654 3.677-3.685v-.116c0-2.039 1.65-3.686 3.677-3.686h3.791 3.792c2.035 0 3.677-1.654 3.677-3.685v-.116c0-2.039 1.651-3.686 3.677-3.686h.115c2.034 0 3.677-1.654 3.677-3.685v-.116c0-2.039 1.65-3.686 3.677-3.686h.115c2.034 0 3.677-1.654 3.677-3.685v-.116c0-2.039 1.65-3.686 3.677-3.686h.115c2.034 0 3.676-1.654 3.676-3.685v-3.802-3.801c0-2.039 1.651-3.686 3.677-3.686h.115c2.035 0 3.677-1.654 3.677-3.685v-45.061c0-2.039-1.65-3.685-3.677-3.685h-.115c-2.034 0-3.677-1.655-3.677-3.686v-3.801zm-29.89 86.089v.115c0 2.039-1.651 3.686-3.677 3.686h-3.792-7.476-26.214c-2.034 0-3.677-1.654-3.677-3.686v-.115c0-2.039-1.65-3.686-3.677-3.686h-.115c-2.034 0-3.676-1.654-3.676-3.686v-.115c0-2.039-1.651-3.686-3.677-3.686h-.115c-2.035 0-3.677-1.654-3.677-3.686v-3.801-7.495-63.7273c0-2.0391 1.65-3.6858 3.677-3.6858h.115c2.034 0 3.677-1.6544 3.677-3.6858v-.1154c0-2.0391 1.65-3.6858 3.676-3.6858h3.792 3.792c2.034 0 3.677-1.6544 3.677-3.6858v-.1154c0-2.0391 1.65-3.6858 3.677-3.6858h22.537c2.034 0 3.676 1.6544 3.676 3.6858v.1154c0 2.0391 1.651 3.6858 3.677 3.6858h.115c2.034 0 3.677 1.6544 3.677 3.6858v7.6101c0 2.0392 1.65 3.6862 3.677 3.6862h.115c2.034 0 3.677 1.654 3.677 3.685v7.61c0 2.04 1.65 3.686 3.677 3.686h.115c2.034 0 3.677 1.655 3.677 3.686v3.801 7.495 33.764c0 2.039-1.651 3.686-3.677 3.686h-.115c-2.034 0-3.677 1.655-3.677 3.686v7.61c0 2.039-1.65 3.686-3.677 3.686h-.115c-2.034 0-3.677 1.654-3.677 3.686z"/><path d="m183.065 195.969v.993c0 1.854-1.482 3.355-3.324 3.355h-23.857c-1.834 0-3.324-1.501-3.324-3.355v-.993c0-1.854 1.482-3.354 3.324-3.354h.983c1.834 0 3.323-1.501 3.323-3.355v-.993c0-1.854 1.482-3.355 3.324-3.355h.983c1.834 0 3.323-1.5 3.323-3.355v-.992c0-1.855 1.482-3.355 3.324-3.355h.983c1.834 0 3.323-1.501 3.323-3.355v-.993c0-1.854 1.482-3.355 3.324-3.355h.983c1.834 0 3.323-1.5 3.323-3.355v-8.695c0-1.854 1.482-3.355 3.324-3.355h.982c1.835 0 3.324-1.5 3.324-3.355v-8.695c0-1.854 1.482-3.355 3.324-3.355h.982c1.835 0 3.324-1.5 3.324-3.354v-54.9023c0-1.8545-1.481-3.3549-3.324-3.3549h-.982c-1.835 0-3.324-1.5005-3.324-3.355v-8.695c0-1.8544-1.481-3.3549-3.324-3.3549h-.982c-1.835 0-3.324-1.5005-3.324-3.3549v-8.6951c0-1.8544-1.481-3.3549-3.323-3.3549h-.983c-1.835 0-3.324-1.5004-3.324-3.3549v-.9926c0-1.8544-1.481-3.3549-3.323-3.3549h-.983c-1.834 0-3.324-1.5005-3.324-3.3549v-.9926c0-1.8545-1.481-3.3549-3.323-3.3549h-.983c-1.834 0-3.324-1.5005-3.324-3.3549v-.9927c0-1.8544-1.481-3.3549-3.323-3.3549h-.983c-1.834 0-3.324-1.5004-3.324-3.3549v-.9926c0-1.8544 1.482-3.3549 3.324-3.3549h23.857c1.835 0 3.324 1.5005 3.324 3.3549v.9926c0 1.8545 1.481 3.3549 3.324 3.3549h.982c1.835 0 3.324 1.5005 3.324 3.3549v.9927c0 1.8544 1.481 3.3549 3.324 3.3549h.982c1.835 0 3.324 1.5004 3.324 3.3549v.9926c0 1.8544 1.481 3.3549 3.323 3.3549h.983c1.835 0 3.324 1.5005 3.324 3.3549v8.6951c0 1.8544 1.481 3.3549 3.323 3.3549h.983c1.835 0 3.324 1.5004 3.324 3.3549v16.3974c0 1.8545 1.481 3.355 3.323 3.355h.983c1.834 0 3.324 1.5004 3.324 3.3549v54.9023c0 1.854-1.482 3.354-3.324 3.354h-.983c-1.834 0-3.323 1.501-3.323 3.355v16.398c0 1.854-1.482 3.355-3.324 3.355h-.983c-1.834 0-3.323 1.5-3.323 3.355v8.695c0 1.854-1.482 3.355-3.324 3.355h-.983c-1.834 0-3.323 1.5-3.323 3.355v.992c0 1.855-1.482 3.355-3.324 3.355h-.982c-1.835 0-3.324 1.501-3.324 3.355v.993c0 1.854-1.482 3.355-3.324 3.355h-.982c-1.835 0-3.324 1.5-3.324 3.354zm-61.017 1.008v-.992c0-1.855-1.481-3.355-3.323-3.355h-.983c-1.834 0-3.324-1.501-3.324-3.355v-.993c0-1.854-1.481-3.355-3.323-3.355h-.983c-1.834 0-3.324-1.5-3.324-3.354v-.993c0-1.854-1.481-3.355-3.323-3.355h-.983c-1.834 0-3.3235-1.5-3.3235-3.355v-8.695c0-1.854-1.4814-3.355-3.3237-3.355h-.9825c-1.8346 0-3.3237-1.5-3.3237-3.355v-16.397c0-1.855-1.4815-3.355-3.3237-3.355h-.9825c-1.8346 0-3.3237-1.501-3.3237-3.355v-54.902c0-1.8544 1.4814-3.3549 3.3237-3.3549h.9825c1.8346 0 3.3237-1.5004 3.3237-3.3549v-16.3974c0-1.8545 1.4815-3.355 3.3237-3.355h.9825c1.8346 0 3.3237-1.5004 3.3237-3.3549v-8.695c0-1.8544 1.4815-3.3549 3.3235-3.3549h.983c1.834 0 3.323-1.5005 3.323-3.3549v-.9926c0-1.8545 1.482-3.3549 3.324-3.3549h.983c1.834 0 3.323-1.5005 3.323-3.355v-.9926c0-1.8544 1.482-3.3549 3.324-3.3549h.983c1.834 0 3.323-1.5005 3.323-3.3549v-.9926c0-1.8544 1.482-3.3549 3.324-3.3549h.983c1.834 0 3.323 1.5005 3.323 3.3549v.9926c0 1.8544 1.482 3.3549 3.324 3.3549h.983c1.834 0 3.323 1.5005 3.323 3.3549v.9926c0 1.8545 1.482 3.355 3.324 3.355h.983c1.834 0 3.323 1.5004 3.323 3.3549v.9926c0 1.8544 1.482 3.3549 3.324 3.3549h.982c1.835 0 3.324 1.5005 3.324 3.3549v8.695c0 1.8545 1.482 3.3549 3.324 3.3549h.982c1.835 0 3.324 1.5005 3.324 3.355v16.3974c0 1.8545 1.482 3.3549 3.324 3.3549h.982c1.835 0 3.324 1.5005 3.324 3.3549v54.902c0 1.854-1.481 3.355-3.324 3.355h-.982c-1.835 0-3.324 1.5-3.324 3.355v16.397c0 1.855-1.481 3.355-3.324 3.355h-.982c-1.835 0-3.324 1.501-3.324 3.355v8.695c0 1.855-1.481 3.355-3.324 3.355h-.982c-1.835 0-3.324 1.501-3.324 3.355v.993c0 1.854-1.481 3.354-3.323 3.354h-.983c-1.835 0-3.324 1.501-3.324 3.355v.993c0 1.854-1.481 3.355-3.323 3.355h-.983c-1.835 0-3.324 1.5-3.324 3.355v.992c0 1.855-1.481 3.355-3.323 3.355h-.983c-1.834 0-3.324-1.5-3.324-3.355zm-45.7639 3.355h-4.3063c-1.8345 0-3.3237-1.5-3.3237-3.355v-.992c0-1.855-1.4815-3.355-3.3237-3.355h-.9825c-1.8346 0-3.3237-1.501-3.3237-3.355v-.993c0-1.854-1.4815-3.355-3.3237-3.355h-.9826c-1.8345 0-3.3237-1.5-3.3237-3.354v-.993c0-1.854-1.4814-3.355-3.3237-3.355h-.9825c-1.8346 0-3.3237-1.5-3.3237-3.355v-8.695c0-1.854-1.4815-3.355-3.3237-3.355h-.9826c-1.8345 0-3.3237-1.5-3.3237-3.355v-16.397c0-1.855-1.4814-3.355-3.3237-3.355h-.9825c-1.8346 0-3.3237-1.501-3.3237-3.355v-54.902c0-1.8544 1.4815-3.3549 3.3237-3.3549h.9825c1.8346 0 3.3237-1.5004 3.3237-3.3549v-16.3974c0-1.8545 1.4815-3.355 3.3237-3.355h.9826c1.8345 0 3.3237-1.5004 3.3237-3.3549v-8.695c0-1.8544 1.4814-3.3549 3.3237-3.3549h.9825c1.8346 0 3.3237-1.5005 3.3237-3.3549v-.9926c0-1.8545 1.4815-3.3549 3.3237-3.3549h.9826c1.8345 0 3.3237-1.5005 3.3237-3.355v-.9926c0-1.8544 1.4814-3.3549 3.3237-3.3549h.9825c1.8346 0 3.3237-1.5005 3.3237-3.3549v-.9926c0-1.8544 1.4815-3.3549 3.3237-3.3549h23.857c1.8346 0 3.3237 1.5005 3.3237 3.3549v.9926c0 1.8544-1.4814 3.3549-3.3237 3.3549h-.9825c-1.8346 0-3.3237 1.5005-3.3237 3.3549v.9926c0 1.8545-1.4815 3.355-3.3237 3.355h-.9825c-1.8346 0-3.3237 1.5004-3.3237 3.3549v.9926c0 1.8544-1.4815 3.3549-3.3238 3.3549h-.9825c-1.8345 0-3.3237 1.5005-3.3237 3.3549v.9926c0 1.8544-1.4815 3.3549-3.3237 3.3549h-.9825c-1.8346 0-3.3237 1.5005-3.3237 3.3549v8.6951c0 1.8544-1.4815 3.3549-3.3238 3.3549h-.9825c-1.8345 0-3.3237 1.5005-3.3237 3.3549v8.695c0 1.8545-1.4814 3.3549-3.3237 3.3549h-.9825c-1.8346 0-3.3237 1.5005-3.3237 3.3549v54.902c0 1.854 1.4814 3.355 3.3237 3.355h.9825c1.8346 0 3.3237 1.5 3.3237 3.355v8.695c0 1.854 1.4815 3.355 3.3237 3.355h.9825c1.8346 0 3.3238 1.5 3.3238 3.355v8.695c0 1.854 1.4814 3.355 3.3237 3.355h.9825c1.8346 0 3.3237 1.5 3.3237 3.355v.992c0 1.855 1.4815 3.355 3.3237 3.355h.9825c1.8346 0 3.3238 1.501 3.3238 3.355v.993c0 1.854 1.4814 3.354 3.3237 3.354h.9825c1.8346 0 3.3237 1.501 3.3237 3.355v.993c0 1.854 1.4815 3.355 3.3237 3.355h.9825c1.8346 0 3.3237 1.5 3.3237 3.355v.992c0 1.855-1.4814 3.355-3.3237 3.355zm171.1289-123.277c-1.835 0-3.324-1.5005-3.324-3.3549v-8.6951c0-1.8544-1.481-3.3549-3.324-3.3549h-.982c-1.835 0-3.324-1.5005-3.324-3.3549v-8.695c0-1.8545-1.481-3.355-3.324-3.355h-.982c-1.835 0-3.324-1.5004-3.324-3.3549v-.9926c0-1.8544-1.481-3.3549-3.324-3.3549h-.982c-1.835 0-3.324-1.5005-3.324-3.3549v-.9926c0-1.8544-1.481-3.3549-3.323-3.3549h-.983c-1.835 0-3.324-1.5005-3.324-3.3549v-.9926c0-1.8545-1.481-3.3549-3.323-3.3549h-.983c-1.834 0-3.324-1.5005-3.324-3.355v-.9926c0-1.8544-1.481-3.3549-3.323-3.3549h-8.605c-1.835 0-3.324-1.5005-3.324-3.3549v-.9926c0-1.85443-1.481-3.35491-3.324-3.35491h-16.234c-1.835 0-3.324-1.50047-3.324-3.3549v-.99262c-.023-1.89291-1.52-3.3933825-3.354-3.3933825h-23.857c-1.835 0-3.324 1.5004725-3.324 3.3549025v.99262c0 1.85443-1.482 3.35491-3.324 3.35491h-16.235c-1.834 0-3.323-1.50048-3.323-3.35491v-.99262c-.016-1.85443-1.497-3.3549025-3.332-3.3549025h-23.8567c-1.8345 0-3.3237 1.5004725-3.3237 3.3549025v.99262c0 1.85443-1.4814 3.35491-3.3237 3.35491h-16.2347c-1.8346 0-3.3237 1.50047-3.3237 3.35488v.9926c0 1.8545-1.4815 3.3549-3.3237 3.3549h-8.6048c-1.8346 0-3.3237 1.5005-3.3237 3.355v.9926c0 1.8544-1.4815 3.3549-3.3238 3.3549h-.9825c-1.8346 0-3.3237 1.5005-3.3237 3.3549v.9926c0 1.8544-1.4815 3.3549-3.3237 3.3549h-.9825c-1.8346 0-3.3237 1.5005-3.3237 3.3549v.9926c0 1.8545-1.4815 3.3549-3.3237 3.3549h-.9826c-1.8345 0-3.3237 1.5005-3.3237 3.3549v.9927c0 1.8544-1.4815 3.3549-3.3237 3.3549h-.9825c-1.8346 0-3.3237 1.5004-3.3237 3.3549v8.695c0 1.8545-1.4815 3.3549-3.3237 3.3549h-.9826c-1.83453 0-3.32367 1.5005-3.32367 3.3549v8.6951c0 1.8544-1.48147 3.3549-3.32371 3.3549h-.98253c-1.88062.0385-3.3697627 1.5389-3.3697627 3.3934v54.9021c0 1.854 1.4814727 3.355 3.3237127 3.355h.98252c1.83457 0 3.32371 1.5 3.32371 3.355v8.695c0 1.854 1.48147 3.355 3.32373 3.355h.9825c1.8346 0 3.3237 1.5 3.3237 3.354v8.696c0 1.854 1.4815 3.354 3.3237 3.354h.9826c1.8345 0 3.3237 1.501 3.3237 3.355v.993c0 1.854 1.4814 3.355 3.3237 3.355h.9825c1.8346 0 3.3237 1.5 3.3237 3.355v.992c0 1.855 1.4815 3.355 3.3237 3.355h.9825c1.8346 0 3.3238 1.501 3.3238 3.355v.993c0 1.854 1.4814 3.355 3.3237 3.355h.9825c1.8346 0 3.3237 1.5 3.3237 3.355v.992c0 1.855 1.4815 3.355 3.3237 3.355h8.6048c1.8346 0 3.3237 1.501 3.3237 3.355v.993c0 1.854 1.4815 3.355 3.3237 3.355h16.2348c1.8345 0 3.3237 1.5 3.3237 3.355v.992c0 1.855 1.4814 3.355 3.3237 3.355h23.8567c1.835 0 3.324-1.5 3.324-3.355v-.992c0-1.855 1.481-3.355 3.324-3.355h16.234c1.835 0 3.324 1.5 3.324 3.355v.992c0 1.855 1.482 3.355 3.324 3.355h23.857c1.834 0 3.324-1.5 3.324-3.355v-.992c0-1.855 1.481-3.355 3.323-3.355h16.235c1.835 0 3.324-1.501 3.324-3.355v-.993c0-1.854 1.481-3.355 3.323-3.355h8.605c1.835 0 3.324-1.5 3.324-3.355v-.992c0-1.855 1.481-3.355 3.324-3.355h.982c1.835 0 3.324-1.501 3.324-3.355v-.993c0-1.854 1.481-3.355 3.324-3.355h.982c1.835 0 3.324-1.5 3.324-3.355v-.992c0-1.855 1.481-3.355 3.324-3.355h.982c1.835 0 3.324-1.501 3.324-3.355v-.993c0-1.854 1.481-3.355 3.323-3.355h.983c1.835 0 3.324-1.5 3.324-3.354v-8.696c0-1.854 1.481-3.354 3.323-3.354h.983c1.835 0 3.324-1.501 3.324-3.355v-8.695c0-1.855 1.481-3.355 3.323-3.355h.983c1.834 0 3.324-1.501 3.324-3.355v-54.9021c0-1.8545-1.482-3.3549-3.324-3.3549h-.983.092z"/></g></svg>