<svg fill="none" height="336" viewBox="0 0 392 336" width="392" xmlns="http://www.w3.org/2000/svg"><path d="m285.217 305.279v1.546c0 2.889-2.307 5.226-5.176 5.226h-37.152c-2.857 0-5.176-2.337-5.176-5.226v-1.546c0-2.889 2.307-5.226 5.176-5.226h1.53c2.857 0 5.176-2.337 5.176-5.226v-1.546c0-2.889 2.307-5.226 5.176-5.226h1.53c2.857 0 5.176-2.338 5.176-5.226v-1.546c0-2.889 2.307-5.227 5.176-5.227h1.53c2.857 0 5.176-2.337 5.176-5.226v-1.546c0-2.888 2.307-5.226 5.176-5.226h1.53c2.857 0 5.176-2.337 5.176-5.226v-13.544c0-2.889 2.307-5.226 5.176-5.226h1.53c2.857 0 5.176-2.338 5.176-5.226v-13.545c0-2.889 2.307-5.226 5.176-5.226h1.53c2.857 0 5.176-2.337 5.176-5.226v-85.522c0-2.889-2.307-5.226-5.176-5.226h-1.53c-2.857 0-5.176-2.338-5.176-5.226v-13.545c0-2.8885-2.307-5.2258-5.176-5.2258h-1.53c-2.857 0-5.176-2.3373-5.176-5.226v-13.5446c0-2.8887-2.307-5.226-5.176-5.226h-1.53c-2.857 0-5.176-2.3373-5.176-5.226v-1.5463c0-2.8887-2.307-5.226-5.176-5.226h-1.53c-2.857 0-5.176-2.3373-5.176-5.226v-1.5463c0-2.8886-2.307-5.226-5.176-5.226h-1.53c-2.857 0-5.176-2.3373-5.176-5.226v-1.5462c0-2.8887-2.307-5.2261-5.176-5.2261h-1.53c-2.857 0-5.176-2.3373-5.176-5.226v-1.5462c0-2.8887 2.307-5.226 5.176-5.226h37.152c2.857 0 5.176 2.3373 5.176 5.226v1.5462c0 2.8887 2.307 5.226 5.176 5.226h1.53c2.857 0 5.176 2.3374 5.176 5.2261v1.5462c0 2.8887 2.307 5.226 5.176 5.226h1.53c2.857 0 5.176 2.3374 5.176 5.226v1.5463c0 2.8887 2.307 5.226 5.176 5.226h1.53c2.857 0 5.176 2.3373 5.176 5.226v13.5446c0 2.8887 2.307 5.226 5.176 5.226h1.53c2.857 0 5.176 2.3373 5.176 5.226v25.5431c0 2.888 2.307 5.226 5.176 5.226h1.53c2.857 0 5.176 2.337 5.176 5.226v85.522c0 2.889-2.307 5.226-5.176 5.226h-1.53c-2.857 0-5.176 2.337-5.176 5.226v25.543c0 2.889-2.307 5.226-5.176 5.226h-1.53c-2.857 0-5.176 2.337-5.176 5.226v13.544c0 2.889-2.307 5.226-5.176 5.226h-1.53c-2.857 0-5.176 2.338-5.176 5.227v1.546c0 2.888-2.307 5.226-5.176 5.226h-1.53c-2.857 0-5.176 2.337-5.176 5.226v1.546c0 2.889-2.307 5.226-5.176 5.226h-1.53c-2.857 0-5.176 2.337-5.176 5.226zm-95.021 1.57v-1.546c0-2.889-2.307-5.226-5.176-5.226h-1.53c-2.857 0-5.176-2.337-5.176-5.226v-1.546c0-2.889-2.307-5.226-5.176-5.226h-1.53c-2.857 0-5.176-2.338-5.176-5.226v-1.547c0-2.888-2.307-5.226-5.176-5.226h-1.53c-2.857 0-5.176-2.337-5.176-5.226v-13.544c0-2.889-2.307-5.226-5.176-5.226h-1.53c-2.857 0-5.176-2.337-5.176-5.226v-25.543c0-2.889-2.307-5.226-5.176-5.226h-1.53c-2.857 0-5.176-2.337-5.176-5.226v-85.522c0-2.889 2.307-5.226 5.176-5.226h1.53c2.857 0 5.176-2.338 5.176-5.226v-25.5431c0-2.8887 2.307-5.226 5.176-5.226h1.53c2.857 0 5.176-2.3374 5.176-5.2261v-13.5445c0-2.8887 2.307-5.226 5.176-5.226h1.53c2.857 0 5.176-2.3373 5.176-5.226v-1.5463c0-2.8887 2.307-5.226 5.176-5.226h1.53c2.857 0 5.176-2.3373 5.176-5.226v-1.5463c0-2.8887 2.307-5.226 5.176-5.226h1.53c2.857 0 5.176-2.3373 5.176-5.226v-1.5462c0-2.8887 2.308-5.2261 5.176-5.2261h1.531c2.856 0 5.176 2.3374 5.176 5.2261v1.5462c0 2.8887 2.307 5.226 5.175 5.226h1.531c2.857 0 5.176 2.3373 5.176 5.226v1.5463c0 2.8887 2.307 5.226 5.176 5.226h1.53c2.857 0 5.176 2.3373 5.176 5.226v1.5463c0 2.8887 2.307 5.226 5.176 5.226h1.53c2.857 0 5.176 2.3373 5.176 5.226v13.5445c0 2.8887 2.307 5.2261 5.176 5.2261h1.53c2.857 0 5.176 2.3373 5.176 5.226v25.5431c0 2.888 2.307 5.226 5.176 5.226h1.53c2.857 0 5.176 2.337 5.176 5.226v85.522c0 2.889-2.307 5.226-5.176 5.226h-1.53c-2.857 0-5.176 2.337-5.176 5.226v25.543c0 2.889-2.307 5.226-5.176 5.226h-1.53c-2.857 0-5.176 2.337-5.176 5.226v13.544c0 2.889-2.307 5.226-5.176 5.226h-1.53c-2.857 0-5.176 2.338-5.176 5.226v1.547c0 2.888-2.307 5.226-5.176 5.226h-1.53c-2.857 0-5.176 2.337-5.176 5.226v1.546c0 2.889-2.308 5.226-5.176 5.226h-1.531c-2.856 0-5.175 2.337-5.175 5.226v1.546c0 2.889-2.308 5.226-5.176 5.226h-1.531c-2.857 0-5.176-2.337-5.176-5.226zm-71.268 5.226h-6.706c-2.857 0-5.176-2.337-5.176-5.226v-1.546c0-2.889-2.307-5.226-5.176-5.226h-1.53c-2.857 0-5.176-2.337-5.176-5.226v-1.546c0-2.889-2.3071-5.226-5.176-5.226h-1.5301c-2.8569 0-5.176-2.338-5.176-5.226v-1.547c0-2.888-2.3071-5.226-5.176-5.226h-1.53c-2.857 0-5.176-2.337-5.176-5.226v-13.544c0-2.889-2.3071-5.226-5.176-5.226h-1.5301c-2.8569 0-5.176-2.337-5.176-5.226v-25.543c0-2.889-2.3071-5.226-5.176-5.226h-1.53c-2.857 0-5.176-2.337-5.176-5.226v-85.522c0-2.889 2.3071-5.226 5.176-5.226h1.53c2.857 0 5.176-2.338 5.176-5.226v-25.5431c0-2.8887 2.3071-5.226 5.176-5.226h1.5301c2.8569 0 5.176-2.3374 5.176-5.2261v-13.5445c0-2.8887 2.307-5.226 5.176-5.226h1.53c2.857 0 5.176-2.3373 5.176-5.226v-1.5463c0-2.8887 2.3071-5.226 5.176-5.226h1.5301c2.8569 0 5.176-2.3373 5.176-5.226v-1.5463c0-2.8887 2.3071-5.226 5.176-5.226h1.53c2.857 0 5.176-2.3373 5.176-5.226v-1.5462c0-2.8887 2.307-5.2261 5.176-5.2261h37.152c2.857 0 5.176 2.3374 5.176 5.2261v1.5462c0 2.8887-2.307 5.226-5.176 5.226h-1.53c-2.857 0-5.176 2.3373-5.176 5.226v1.5463c0 2.8887-2.307 5.226-5.176 5.226h-1.53c-2.857 0-5.176 2.3373-5.176 5.226v1.5463c0 2.8887-2.307 5.226-5.176 5.226h-1.53c-2.857 0-5.176 2.3373-5.176 5.226v1.5462c0 2.8887-2.307 5.2261-5.176 5.2261h-1.53c-2.857 0-5.176 2.3373-5.176 5.226v13.5445c0 2.8887-2.307 5.226-5.176 5.226h-1.53c-2.8569 0-5.1759 2.3374-5.1759 5.2259v13.545c0 2.888-2.3071 5.226-5.176 5.226h-1.5301c-2.8569 0-5.176 2.337-5.176 5.226v85.522c0 2.889 2.3071 5.226 5.176 5.226h1.5301c2.8569 0 5.176 2.337 5.176 5.226v13.545c0 2.888 2.307 5.226 5.1759 5.226h1.53c2.857 0 5.176 2.337 5.176 5.226v13.544c0 2.889 2.307 5.226 5.176 5.226h1.53c2.857 0 5.176 2.337 5.176 5.226v1.546c0 2.889 2.307 5.226 5.176 5.226h1.53c2.857 0 5.176 2.338 5.176 5.226v1.547c0 2.888 2.307 5.226 5.176 5.226h1.53c2.857 0 5.176 2.337 5.176 5.226v1.546c0 2.889 2.307 5.226 5.176 5.226h1.53c2.857 0 5.176 2.337 5.176 5.226v1.546c0 2.889-2.307 5.226-5.176 5.226zm266.497-192.032c-2.857 0-5.176-2.338-5.176-5.226v-13.545c0-2.8884-2.307-5.2258-5.176-5.2258h-1.53c-2.857 0-5.176-2.3373-5.176-5.226v-13.5445c0-2.8887-2.307-5.226-5.176-5.226h-1.53c-2.857 0-5.176-2.3374-5.176-5.2261v-1.5462c0-2.8887-2.307-5.226-5.176-5.226h-1.53c-2.857 0-5.176-2.3374-5.176-5.2261v-1.5462c0-2.8887-2.307-5.226-5.176-5.226h-1.53c-2.857 0-5.176-2.3373-5.176-5.226v-1.5463c0-2.8887-2.307-5.226-5.176-5.226h-1.53c-2.857 0-5.176-2.3373-5.176-5.226v-1.5463c0-2.8887-2.307-5.226-5.176-5.226h-13.4c-2.857 0-5.176-2.3373-5.176-5.226v-1.5463c0-2.8887-2.307-5.226-5.176-5.226h-25.282c-2.857 0-5.176-2.33731-5.176-5.22601v-1.54623c-.036-2.94863-2.367-5.28596-5.224-5.28596h-37.152c-2.857 0-5.176 2.33733-5.176 5.22603v1.54623c0 2.8887-2.307 5.22604-5.176 5.22604h-25.282c-2.857 0-5.176-2.33734-5.176-5.22604v-1.54623c-.024-2.8887-2.331-5.22603-5.188-5.22603h-37.153c-2.857 0-5.176 2.33733-5.176 5.22603v1.54623c0 2.8887-2.307 5.22604-5.176 5.22604h-25.282c-2.8568 0-5.1758 2.3373-5.1758 5.226v1.5462c0 2.8887-2.3071 5.2261-5.176 5.2261h-13.4002c-2.857 0-5.176 2.3373-5.176 5.226v1.5462c0 2.8887-2.3071 5.2261-5.176 5.2261h-1.53c-2.857 0-5.176 2.3373-5.176 5.226v1.5462c0 2.8887-2.3071 5.226-5.176 5.226h-1.5301c-2.8569 0-5.176 2.3374-5.176 5.2261v1.5462c0 2.8887-2.3071 5.226-5.176 5.226h-1.5301c-2.8569 0-5.1759 2.3374-5.1759 5.2261v1.5462c0 2.8887-2.3071 5.226-5.176 5.226h-1.5301c-2.8569 0-5.176 2.3374-5.176 5.2261v13.5445c0 2.8887-2.3071 5.226-5.176 5.226h-1.53c-2.857 0-5.176 2.3373-5.176 5.2257v13.545c0 2.889-2.30711 5.226-5.17601 5.226h-1.53008c-2.92868.06-5.24771 2.397-5.24771 5.286v85.522c0 2.889 2.30708 5.226 5.17598 5.226h1.53009c2.85695 0 5.17593 2.337 5.17593 5.226v13.545c0 2.888 2.3071 5.226 5.176 5.226h1.5301c2.857 0 5.176 2.337 5.176 5.226v13.544c0 2.889 2.3071 5.226 5.176 5.226h1.5301c2.8569 0 5.1759 2.338 5.1759 5.226v1.547c0 2.888 2.3071 5.226 5.176 5.226h1.5301c2.857 0 5.176 2.337 5.176 5.226v1.546c0 2.889 2.3071 5.226 5.176 5.226h1.5301c2.8569 0 5.1759 2.337 5.1759 5.226v1.546c0 2.889 2.3071 5.226 5.176 5.226h1.5301c2.857 0 5.176 2.337 5.176 5.226v1.546c0 2.889 2.3071 5.226 5.176 5.226h13.4002c2.8569 0 5.1759 2.338 5.1759 5.226v1.547c0 2.888 2.3071 5.226 5.1756 5.226h25.283c2.857 0 5.176 2.337 5.176 5.226v1.546c0 2.889 2.307 5.226 5.176 5.226h37.152c2.857 0 5.176-2.337 5.176-5.226v-1.546c0-2.889 2.307-5.226 5.176-5.226h25.282c2.857 0 5.176 2.337 5.176 5.226v1.546c0 2.889 2.307 5.226 5.176 5.226h37.152c2.857 0 5.176-2.337 5.176-5.226v-1.546c0-2.889 2.307-5.226 5.176-5.226h25.283c2.857 0 5.176-2.338 5.176-5.226v-1.547c0-2.888 2.307-5.226 5.176-5.226h13.4c2.857 0 5.176-2.337 5.176-5.226v-1.546c0-2.889 2.307-5.226 5.176-5.226h1.53c2.857 0 5.176-2.337 5.176-5.226v-1.546c0-2.889 2.307-5.226 5.176-5.226h1.53c2.857 0 5.176-2.337 5.176-5.226v-1.546c0-2.889 2.307-5.226 5.176-5.226h1.53c2.857 0 5.176-2.338 5.176-5.226v-1.547c0-2.888 2.307-5.226 5.176-5.226h1.53c2.857 0 5.176-2.337 5.176-5.226v-13.544c0-2.889 2.307-5.226 5.176-5.226h1.53c2.857 0 5.176-2.338 5.176-5.226v-13.545c0-2.889 2.307-5.226 5.176-5.226h1.53c2.857 0 5.176-2.337 5.176-5.226v-85.522c0-2.889-2.307-5.226-5.176-5.226h-1.53.143z" fill="#fff"/></svg>